<?xml version="1.0" standalone="no"?>
<!DOCTYPE svg PUBLIC "-//W3C//DTD SVG 20010904//EN"
 "http://www.w3.org/TR/2001/REC-SVG-20010904/DTD/svg10.dtd">
<svg version="1.0" xmlns="http://www.w3.org/2000/svg"
 width="513.000000pt" height="527.000000pt" viewBox="0 0 513.000000 527.000000"
 preserveAspectRatio="xMidYMid meet">

<g transform="translate(0.000000,527.000000) scale(0.100000,-0.100000)"
fill="#000000" stroke="none">
<path d="M225 4530 c-12 -36 -7 -102 7 -111 7 -5 38 -11 68 -14 292 -33 376
-73 410 -194 35 -120 35 -211 6 -1450 -31 -1369 -35 -1438 -91 -1602 -50 -150
-113 -197 -306 -230 -62 -11 -118 -24 -126 -30 -17 -15 -17 -93 1 -108 11 -9
85 -9 315 0 236 10 369 10 616 0 173 -7 319 -10 324 -7 15 9 22 72 12 99 -9
22 -18 26 -98 37 -135 18 -213 38 -268 68 -42 23 -55 37 -83 92 -72 144 -78
331 -67 1883 l7 1028 31 -3 31 -3 398 -925 c477 -1107 642 -1498 819 -1930 73
-179 137 -331 142 -338 15 -19 101 -15 120 6 10 10 17 22 17 26 0 18 318 771
815 1934 519 1214 527 1232 555 1232 l28 0 6 -842 c13 -1619 12 -1884 -7
-1971 -18 -88 -58 -169 -94 -193 -44 -28 -106 -45 -226 -59 -65 -7 -124 -19
-132 -25 -19 -16 -20 -94 -1 -109 10 -9 97 -9 355 0 266 10 427 10 723 0 288
-9 383 -9 394 0 18 15 18 93 0 108 -7 6 -69 18 -137 26 -217 26 -271 51 -318
148 -36 72 -47 141 -56 347 -12 270 -33 2464 -24 2583 21 299 75 362 339 392
116 13 138 19 154 38 19 23 18 89 -3 110 -7 7 -81 6 -243 -2 -128 -7 -372 -11
-543 -10 l-309 4 -10 -35 c-45 -167 -575 -1514 -936 -2380 -54 -129 -133 -320
-175 -423 -43 -104 -81 -185 -86 -180 -4 4 -34 76 -67 158 -33 83 -105 256
-160 385 -267 628 -825 1961 -875 2090 -30 80 -72 199 -94 265 l-38 120 -380
0 c-209 0 -459 4 -556 9 l-177 8 -7 -22z"/>
</g>
</svg>
